<mxfile host="Electron" modified="2024-04-02T17:24:12.233Z" agent="Mozilla/5.0 (Windows NT 10.0; Win64; x64) AppleWebKit/537.36 (KHTML, like Gecko) draw.io/24.1.0 Chrome/120.0.6099.109 Electron/28.1.0 Safari/537.36" etag="AC-rhFSSWlA2VXh4xprD" version="24.1.0" type="device">
  <diagram name="Page-1" id="Ung-Xz7ce_01xGZZwBG7">
    <mxGraphModel dx="1084" dy="951" grid="1" gridSize="10" guides="1" tooltips="1" connect="1" arrows="1" fold="1" page="1" pageScale="1" pageWidth="850" pageHeight="1100" math="0" shadow="0">
      <root>
        <mxCell id="0" />
        <mxCell id="1" parent="0" />
        <mxCell id="0g_Jq2o18HyHeCcwp60a-1" value="Application" style="rounded=0;whiteSpace=wrap;html=1;verticalAlign=top;fillColor=#dae8fc;strokeColor=#6c8ebf;" vertex="1" parent="1">
          <mxGeometry x="270" y="290" width="330" height="220" as="geometry" />
        </mxCell>
        <mxCell id="0g_Jq2o18HyHeCcwp60a-6" style="edgeStyle=orthogonalEdgeStyle;rounded=0;orthogonalLoop=1;jettySize=auto;html=1;" edge="1" parent="1" source="0g_Jq2o18HyHeCcwp60a-2" target="0g_Jq2o18HyHeCcwp60a-3">
          <mxGeometry relative="1" as="geometry" />
        </mxCell>
        <mxCell id="0g_Jq2o18HyHeCcwp60a-2" value="User Interface" style="rounded=0;whiteSpace=wrap;html=1;fillColor=#fff2cc;strokeColor=#d6b656;" vertex="1" parent="1">
          <mxGeometry x="290" y="330" width="290" height="40" as="geometry" />
        </mxCell>
        <mxCell id="0g_Jq2o18HyHeCcwp60a-7" style="edgeStyle=orthogonalEdgeStyle;rounded=0;orthogonalLoop=1;jettySize=auto;html=1;" edge="1" parent="1" source="0g_Jq2o18HyHeCcwp60a-3" target="0g_Jq2o18HyHeCcwp60a-4">
          <mxGeometry relative="1" as="geometry" />
        </mxCell>
        <mxCell id="0g_Jq2o18HyHeCcwp60a-3" value="Business Logic" style="rounded=0;whiteSpace=wrap;html=1;fillColor=#e1d5e7;strokeColor=#9673a6;" vertex="1" parent="1">
          <mxGeometry x="290" y="390" width="290" height="40" as="geometry" />
        </mxCell>
        <mxCell id="0g_Jq2o18HyHeCcwp60a-8" style="edgeStyle=orthogonalEdgeStyle;rounded=0;orthogonalLoop=1;jettySize=auto;html=1;" edge="1" parent="1" source="0g_Jq2o18HyHeCcwp60a-4" target="0g_Jq2o18HyHeCcwp60a-5">
          <mxGeometry relative="1" as="geometry" />
        </mxCell>
        <mxCell id="0g_Jq2o18HyHeCcwp60a-4" value="Data Access" style="rounded=0;whiteSpace=wrap;html=1;fillColor=#d5e8d4;strokeColor=#82b366;" vertex="1" parent="1">
          <mxGeometry x="290" y="450" width="290" height="40" as="geometry" />
        </mxCell>
        <mxCell id="0g_Jq2o18HyHeCcwp60a-5" value="RDBMS" style="shape=cylinder3;whiteSpace=wrap;html=1;boundedLbl=1;backgroundOutline=1;size=15;fillColor=#b0e3e6;strokeColor=#0e8088;" vertex="1" parent="1">
          <mxGeometry x="405" y="550" width="60" height="80" as="geometry" />
        </mxCell>
      </root>
    </mxGraphModel>
  </diagram>
</mxfile>
